<svg width="95.000000" height="100.000000" viewBox="0 0 95 100" fill="none" xmlns="http://www.w3.org/2000/svg" xmlns:xlink="http://www.w3.org/1999/xlink">
	<desc>
			Created with Pixso.
	</desc>
	<defs/>
	<path id="XMLID_368_" d="M87.49 83.5L6.5 83.5C2.64 83.5 -0.5 80.41 -0.5 76.6L-0.5 70.55C-0.5 70 -0.05 69.56 0.5 69.56L93.49 69.56C94.04 69.56 94.5 70 94.5 70.55L94.5 76.6C94.5 80.41 91.35 83.5 87.49 83.5ZM1.52 71.55L1.52 76.6C1.52 79.31 3.75 81.51 6.5 81.51L87.49 81.51C90.24 81.51 92.47 79.31 92.47 76.6L92.47 71.55L1.52 71.55Z" fill="#6D95FC" fill-opacity="1.000000" fill-rule="nonzero"/>
	<path id="XMLID_368_" d="M87.49 83.5L6.5 83.5C2.64 83.5 -0.5 80.41 -0.5 76.6L-0.5 70.55C-0.5 70 -0.05 69.56 0.5 69.56L93.49 69.56C94.04 69.56 94.5 70 94.5 70.55L94.5 76.6C94.5 80.41 91.35 83.5 87.49 83.5ZM92.47 75.55L92.47 76.6C92.47 79.31 90.24 81.51 87.49 81.51L6.5 81.51C3.75 81.51 1.52 79.31 1.52 76.6L1.52 75.55L1.52 73.56L1.52 71.55L5.52 71.55L88.47 71.55L92.47 71.55L92.47 75.55Z" fill="#FBFBFB" fill-opacity="1.000000" fill-rule="evenodd"/>
	<path id="XMLID_367_" d="M93.49 71.55L0.5 71.55C-0.05 71.55 -0.5 71.1 -0.5 70.55L-0.5 26.02C-0.5 21.46 3.26 17.76 7.88 17.76L43.05 17.76C43.61 17.76 44.07 18.2 44.07 18.75C44.07 19.3 43.61 19.75 43.05 19.75L7.88 19.75C4.37 19.75 1.52 22.56 1.52 26.02L1.52 69.56L92.47 69.56L92.47 26.02C92.47 22.56 89.62 19.75 86.11 19.75L63.06 19.75C62.5 19.75 62.05 19.3 62.05 18.75C62.05 18.2 62.5 17.76 63.06 17.76L86.11 17.76C90.73 17.76 94.5 21.46 94.5 26.02L94.5 70.55C94.5 71.1 94.04 71.55 93.49 71.55Z" fill="#6D95FC" fill-opacity="1.000000" fill-rule="nonzero"/>
	<path id="XMLID_367_" d="M40.16 19.75L43.05 19.75C43.61 19.75 44.07 19.3 44.07 18.75C44.07 18.2 43.61 17.76 43.05 17.76L7.88 17.76C3.26 17.76 -0.5 21.46 -0.5 26.02L-0.5 70.55C-0.5 71.1 -0.05 71.55 0.5 71.55L93.49 71.55C94.04 71.55 94.5 71.1 94.5 70.55L94.5 26.02C94.5 21.46 90.73 17.76 86.11 17.76L63.06 17.76C62.5 17.76 62.05 18.2 62.05 18.75C62.05 19.3 62.5 19.75 63.06 19.75L86.11 19.75C89.62 19.75 92.47 22.56 92.47 26.02L92.47 65.56L92.47 67.55L92.47 69.56L88.47 69.56L5.52 69.56L3.5 69.56L1.52 69.56L1.52 65.56L1.52 26.02C1.52 22.56 4.37 19.75 7.88 19.75L40.16 19.75Z" fill="#FBFBFB" fill-opacity="1.000000" fill-rule="evenodd"/>
	<path id="XMLID_364_" d="M31.13 41.36C30.86 41.36 30.61 41.26 30.41 41.07C30.15 40.81 30.05 40.43 30.16 40.08L34.45 25.99C34.5 25.83 34.58 25.69 34.7 25.58L58.28 2.33C59.81 0.82 61.84 0 64 0C66.16 0 68.19 0.82 69.72 2.33C71.25 3.83 72.09 5.84 72.09 7.96C72.09 10.09 71.25 12.09 69.72 13.6L46.14 36.85C46.02 36.96 45.87 37.05 45.71 37.09L31.42 41.32C31.32 41.35 31.23 41.36 31.13 41.36ZM36.31 26.81L32.64 38.88L44.89 35.26L68.29 12.19C69.43 11.06 70.07 9.56 70.07 7.96C70.07 6.37 69.43 4.87 68.29 3.74C67.14 2.61 65.62 1.99 64 1.99C62.38 1.99 60.86 2.61 59.71 3.74L36.31 26.81Z" fill="#6D95FC" fill-opacity="1.000000" fill-rule="nonzero"/>
	<path id="XMLID_364_" d="M31.13 41.36C30.86 41.36 30.61 41.26 30.41 41.07C30.15 40.81 30.05 40.43 30.16 40.08L30.99 37.37L31.02 37.27L31.6 35.37L31.71 34.98L34.45 25.99C34.5 25.83 34.58 25.69 34.7 25.58L58.28 2.33C59.81 0.82 61.84 0 64 0C66.16 0 68.19 0.82 69.72 2.33C71.25 3.83 72.09 5.84 72.09 7.96C72.09 10.09 71.25 12.09 69.72 13.6L46.14 36.85C46.02 36.96 45.87 37.05 45.71 37.09L36.53 39.81L36.1 39.94L34.22 40.49L34.13 40.52L31.42 41.32C31.32 41.35 31.23 41.36 31.13 41.36ZM32.64 38.88L33.56 38.61L34.91 38.21L37.23 37.52L44.89 35.26L68.29 12.19C69.43 11.06 70.07 9.56 70.07 7.96C70.07 6.37 69.43 4.87 68.29 3.74C67.14 2.61 65.62 1.99 64 1.99C62.38 1.99 60.86 2.61 59.71 3.74L36.31 26.81L34.03 34.3L33.33 36.58L32.92 37.96L32.64 38.88Z" fill="#6D95FC" fill-opacity="1.000000" fill-rule="evenodd"/>
	<path id="XMLID_363_" d="M38.99 32.17C37.83 32.17 36.66 31.73 35.77 30.86C34 29.11 34 26.27 35.77 24.52C36.17 24.13 36.81 24.13 37.2 24.52C37.6 24.91 37.6 25.54 37.2 25.93C36.22 26.9 36.22 28.48 37.2 29.45C38.19 30.42 39.79 30.42 40.78 29.45C41.17 29.06 41.81 29.06 42.21 29.45C42.6 29.84 42.6 30.47 42.21 30.86C41.32 31.73 40.16 32.17 38.99 32.17Z" fill="#6D95FC" fill-opacity="1.000000" fill-rule="nonzero"/>
	<path id="XMLID_363_" d="M36.52 28.23C36.34 27.42 36.57 26.55 37.2 25.93C37.6 25.54 37.6 24.91 37.2 24.52C36.81 24.13 36.17 24.13 35.77 24.52C34.96 25.32 34.51 26.36 34.45 27.42C34.38 28.66 34.82 29.92 35.77 30.86C36.66 31.73 37.83 32.17 38.99 32.17C39.08 32.17 39.17 32.17 39.27 32.16C40.34 32.1 41.39 31.66 42.21 30.86C42.6 30.47 42.6 29.84 42.21 29.45C41.81 29.06 41.17 29.06 40.78 29.45C40.16 30.06 39.3 30.28 38.5 30.13C38.03 30.04 37.57 29.81 37.2 29.45C36.85 29.1 36.62 28.67 36.52 28.23Z" fill="#6D95FC" fill-opacity="1.000000" fill-rule="evenodd"/>
	<path id="XMLID_362_" d="M43.99 37.1C42.78 37.1 41.64 36.64 40.78 35.79C39.92 34.94 39.44 33.82 39.44 32.62C39.44 31.42 39.92 30.3 40.78 29.45L53.35 17.05C53.75 16.66 54.39 16.66 54.78 17.05C55.18 17.44 55.18 18.07 54.78 18.46L42.21 30.86C41.73 31.33 41.47 31.95 41.47 32.62C41.47 33.28 41.73 33.91 42.21 34.38C42.68 34.85 43.32 35.11 43.99 35.11C44.67 35.11 45.3 34.85 45.78 34.38C46.17 33.99 46.81 33.99 47.21 34.38C47.6 34.77 47.6 35.4 47.21 35.79C46.35 36.64 45.21 37.1 43.99 37.1Z" fill="#6D95FC" fill-opacity="1.000000" fill-rule="nonzero"/>
	<path id="XMLID_362_" d="M52.76 20.46L54.78 18.46C55.18 18.07 55.18 17.44 54.78 17.05C54.39 16.66 53.75 16.66 53.35 17.05L51.36 19.02L40.78 29.45C39.92 30.3 39.44 31.42 39.44 32.62C39.44 33.82 39.92 34.94 40.78 35.79C41.64 36.64 42.78 37.1 43.99 37.1C44.08 37.1 44.18 37.1 44.27 37.09C45.38 37.03 46.41 36.57 47.21 35.79C47.6 35.4 47.6 34.77 47.21 34.38C46.81 33.99 46.17 33.99 45.78 34.38C45.3 34.85 44.67 35.11 43.99 35.11C43.83 35.11 43.66 35.09 43.5 35.06C43.01 34.97 42.57 34.74 42.21 34.38C41.73 33.91 41.47 33.28 41.47 32.62C41.47 31.95 41.73 31.33 42.21 30.86L52.76 20.46Z" fill="#6D95FC" fill-opacity="1.000000" fill-rule="evenodd"/>
	<path id="XMLID_361_" d="M66.15 16.71C65.89 16.71 65.63 16.61 65.43 16.42L55.43 6.56C55.03 6.17 55.03 5.54 55.43 5.15C55.82 4.76 56.46 4.76 56.86 5.15L66.86 15.01C67.26 15.4 67.26 16.03 66.86 16.42C66.66 16.61 66.41 16.71 66.15 16.71Z" fill="#6D95FC" fill-opacity="1.000000" fill-rule="nonzero"/>
	<path id="XMLID_361_" d="M58.85 7.12L64.84 13.01L66.86 15.01C67.26 15.4 67.26 16.03 66.86 16.42C66.66 16.61 66.41 16.71 66.15 16.71C65.89 16.71 65.63 16.61 65.43 16.42L63.44 14.45L57.45 8.55L55.43 6.56C55.03 6.17 55.03 5.54 55.43 5.15C55.82 4.76 56.46 4.76 56.86 5.15L58.85 7.12Z" fill="#6D95FC" fill-opacity="1.000000" fill-rule="evenodd"/>
	<path id="XMLID_360_" d="M69.23 61.59L53.06 61.59C49.71 61.59 47 58.91 47 55.61C47 52.31 49.71 49.63 53.06 49.63L75.29 49.63C77.52 49.63 79.33 47.85 79.33 45.65L79.33 45.35C79.33 43.15 77.52 41.36 75.29 41.36L31.13 41.36C30.57 41.36 30.12 40.92 30.12 40.37C30.12 39.82 30.57 39.37 31.13 39.37L75.29 39.37C78.64 39.37 81.36 42.05 81.36 45.35L81.36 45.65C81.36 48.94 78.64 51.63 75.29 51.63L53.06 51.63C50.83 51.63 49.01 53.41 49.01 55.61C49.01 57.81 50.83 59.59 53.06 59.59L69.23 59.59C69.79 59.59 70.24 60.04 70.24 60.59C70.24 61.14 69.79 61.59 69.23 61.59Z" fill="#6D95FC" fill-opacity="1.000000" fill-rule="nonzero"/>
	<path id="XMLID_360_" d="M33.96 39.37L75.29 39.37C78.64 39.37 81.36 42.05 81.36 45.35L81.36 45.65C81.36 48.94 78.64 51.63 75.29 51.63L53.06 51.63C50.83 51.63 49.01 53.41 49.01 55.61C49.01 57.81 50.83 59.59 53.06 59.59L69.23 59.59C69.79 59.59 70.24 60.04 70.24 60.59C70.24 61.14 69.79 61.59 69.23 61.59L53.06 61.59C49.71 61.59 47 58.91 47 55.61C47 52.31 49.71 49.63 53.06 49.63L75.29 49.63C77.52 49.63 79.33 47.85 79.33 45.65L79.33 45.35C79.33 43.15 77.52 41.36 75.29 41.36L31.13 41.36C30.57 41.36 30.12 40.92 30.12 40.37C30.12 39.82 30.57 39.37 31.13 39.37L33.96 39.37Z" fill="#6D95FC" fill-opacity="1.000000" fill-rule="evenodd"/>
	<path id="XMLID_359_" d="M30.83 62.58L0.5 62.58C-0.05 62.58 -0.5 62.14 -0.5 61.59C-0.5 61.04 -0.05 60.59 0.5 60.59L30.83 60.59C31.38 60.59 31.83 61.04 31.83 61.59C31.83 62.14 31.38 62.58 30.83 62.58Z" fill="#6D95FC" fill-opacity="1.000000" fill-rule="nonzero"/>
	<path id="XMLID_359_" d="M3.33 60.59L0.5 60.59C-0.05 60.59 -0.5 61.04 -0.5 61.59C-0.5 62.14 -0.05 62.58 0.5 62.58L30.83 62.58C31.38 62.58 31.83 62.14 31.83 61.59C31.83 61.04 31.38 60.59 30.83 60.59L3.33 60.59Z" fill="#FBFBFB" fill-opacity="1.000000" fill-rule="evenodd"/>
	<path id="XMLID_358_" d="M30.83 56.61L0.5 56.61C-0.05 56.61 -0.5 56.16 -0.5 55.61C-0.5 55.06 -0.05 54.61 0.5 54.61L30.83 54.61C31.38 54.61 31.83 55.06 31.83 55.61C31.83 56.16 31.38 56.61 30.83 56.61Z" fill="#6D95FC" fill-opacity="1.000000" fill-rule="nonzero"/>
	<path id="XMLID_358_" d="M3.33 54.61L0.5 54.61C-0.05 54.61 -0.5 55.06 -0.5 55.61C-0.5 56.16 -0.05 56.61 0.5 56.61L30.83 56.61C31.38 56.61 31.83 56.16 31.83 55.61C31.83 55.06 31.38 54.61 30.83 54.61L3.33 54.61Z" fill="#FBFBFB" fill-opacity="1.000000" fill-rule="evenodd"/>
	<path id="XMLID_357_" d="M30.83 50.63L0.5 50.63C-0.05 50.63 -0.5 50.18 -0.5 49.63C-0.5 49.08 -0.05 48.64 0.5 48.64L30.83 48.64C31.38 48.64 31.83 49.08 31.83 49.63C31.83 50.18 31.38 50.63 30.83 50.63Z" fill="#6D95FC" fill-opacity="1.000000" fill-rule="nonzero"/>
	<path id="XMLID_357_" d="M3.33 48.64L0.5 48.64C-0.05 48.64 -0.5 49.08 -0.5 49.63C-0.5 50.18 -0.05 50.63 0.5 50.63L30.83 50.63C31.38 50.63 31.83 50.18 31.83 49.63C31.83 49.08 31.38 48.64 30.83 48.64L3.33 48.64Z" fill="#FBFBFB" fill-opacity="1.000000" fill-rule="evenodd"/>
	<path id="XMLID_315_" d="M58.11 95.46L35.88 95.46C35.32 95.46 34.87 95.01 34.87 94.46L34.87 82.51C34.87 81.96 35.32 81.51 35.88 81.51L58.11 81.51C58.67 81.51 59.12 81.96 59.12 82.51L59.12 94.46C59.12 95.01 58.67 95.46 58.11 95.46ZM36.89 93.46L57.1 93.46L57.1 83.5L36.89 83.5L36.89 93.46Z" fill="#6D95FC" fill-opacity="1.000000" fill-rule="nonzero"/>
	<path id="XMLID_315_" d="M58.11 95.46L35.88 95.46C35.32 95.46 34.87 95.01 34.87 94.46L34.87 82.51C34.87 81.96 35.32 81.51 35.88 81.51L58.11 81.51C58.67 81.51 59.12 81.96 59.12 82.51L59.12 94.46C59.12 95.01 58.67 95.46 58.11 95.46ZM36.89 91.63L36.89 93.46L57.1 93.46L57.1 83.5L36.89 83.5L36.89 91.63Z" fill="#FBFBFB" fill-opacity="1.000000" fill-rule="evenodd"/>
	<path id="XMLID_312_" d="M53.06 95.46L40.93 95.46C40.37 95.46 39.92 95.01 39.92 94.46L39.92 82.51C39.92 81.96 40.37 81.51 40.93 81.51L53.06 81.51C53.62 81.51 54.07 81.96 54.07 82.51L54.07 94.46C54.07 95.01 53.62 95.46 53.06 95.46ZM41.94 93.46L52.05 93.46L52.05 83.5L41.94 83.5L41.94 93.46Z" fill="#6D95FC" fill-opacity="1.000000" fill-rule="nonzero"/>
	<path id="XMLID_312_" d="M53.06 95.46L40.93 95.46C40.37 95.46 39.92 95.01 39.92 94.46L39.92 82.51C39.92 81.96 40.37 81.51 40.93 81.51L53.06 81.51C53.62 81.51 54.07 81.96 54.07 82.51L54.07 94.46C54.07 95.01 53.62 95.46 53.06 95.46ZM41.94 91.63L41.94 93.46L52.05 93.46L52.05 83.5L41.94 83.5L41.94 91.63Z" fill="#FBFBFB" fill-opacity="1.000000" fill-rule="evenodd"/>
	<path id="XMLID_309_" d="M61.15 99.44L32.85 99.44C31.17 99.44 29.82 98.1 29.82 96.45C29.82 94.81 31.17 93.47 32.85 93.47L61.15 93.47C62.82 93.47 64.18 94.81 64.18 96.45C64.18 98.1 62.82 99.44 61.15 99.44ZM32.85 95.46C32.29 95.46 31.84 95.91 31.84 96.45C31.84 97 32.29 97.45 32.85 97.45L61.15 97.45C61.7 97.45 62.16 97 62.16 96.45C62.16 95.91 61.7 95.46 61.15 95.46L32.85 95.46Z" fill="#6D95FC" fill-opacity="1.000000" fill-rule="nonzero"/>
	<path id="XMLID_309_" d="M35.67 97.45L32.85 97.45C32.29 97.45 31.84 97 31.84 96.45C31.84 95.91 32.29 95.46 32.85 95.46L61.15 95.46C61.7 95.46 62.16 95.91 62.16 96.45C62.16 97 61.7 97.45 61.15 97.45L35.67 97.45ZM60.84 99.44L32.85 99.44C31.17 99.44 29.82 98.1 29.82 96.45C29.82 94.81 31.17 93.47 32.85 93.47L61.15 93.47C62.82 93.47 64.18 94.81 64.18 96.45C64.18 98.1 62.82 99.44 61.15 99.44L60.84 99.44Z" fill="#FBFBFB" fill-opacity="1.000000" fill-rule="evenodd"/>
</svg>
